<?xml version="1.0" standalone="no"?>
<!DOCTYPE svg PUBLIC "-//W3C//DTD SVG 20010904//EN"
 "http://www.w3.org/TR/2001/REC-SVG-20010904/DTD/svg10.dtd">
<svg version="1.0" xmlns="http://www.w3.org/2000/svg"
 width="260.000000pt" height="260.000000pt" viewBox="0 0 260.000000 260.000000"
 preserveAspectRatio="xMidYMid meet">
<metadata>
Created by potrace 1.11, written by Peter Selinger 2001-2013
</metadata>
<g transform="translate(0.000000,260.000000) scale(0.100000,-0.100000)"
fill="#000000" stroke="none">
<path d="M1409 2125 c-1 0 -3 -377 -4 -837 l-1 -838 138 0 138 0 0 198 c0 224
-11 192 91 274 l46 38 184 -255 184 -254 163 -1 162 0 -102 138 c-57 75 -105
139 -108 142 -19 18 -290 389 -290 396 0 9 19 30 185 209 56 61 131 141 166
179 35 38 76 82 91 98 32 33 46 30 -146 31 l-139 0 -71 -74 c-39 -41 -120
-128 -181 -193 -60 -65 -115 -124 -122 -131 -6 -7 -35 -43 -64 -81 -28 -38
-52 -70 -53 -71 0 -1 1 230 3 513 1 283 -1 514 -5 515 -6 0 -235 4 -265 4z"/>
<path d="M550 1659 c-85 -13 -105 -17 -149 -33 -147 -54 -221 -156 -215 -301
4 -103 30 -162 99 -223 53 -47 94 -70 214 -119 119 -49 235 -110 264 -139 72
-72 25 -176 -89 -199 -37 -7 -137 -7 -190 0 -52 6 -208 51 -252 72 -18 9 -35
13 -39 10 -11 -12 -9 -218 3 -228 24 -20 142 -52 244 -65 36 -5 219 -4 255 1
124 17 211 53 278 114 69 64 92 125 92 246 0 85 -3 106 -23 143 -53 99 -123
145 -369 246 -174 70 -213 103 -213 174 0 65 65 96 200 95 63 -1 100 -8 193
-40 l116 -40 12 31 c7 17 22 54 34 81 40 89 40 90 -2 108 -51 22 -168 54 -223
62 -68 10 -190 12 -240 4z"/>
</g>
</svg>
