<?xml version="1.0" standalone="no"?>
<!DOCTYPE svg PUBLIC "-//W3C//DTD SVG 20010904//EN"
 "http://www.w3.org/TR/2001/REC-SVG-20010904/DTD/svg10.dtd">
<svg version="1.0" xmlns="http://www.w3.org/2000/svg"
 width="260.000000pt" height="260.000000pt" viewBox="0 0 260.000000 260.000000"
 preserveAspectRatio="xMidYMid meet">
<metadata>
Created by potrace 1.14, written by Peter Selinger 2001-2017
</metadata>
<g transform="translate(0.000000,260.000000) scale(0.100000,-0.100000)"
fill="#000000" stroke="none">
<path d="M371 1970 c-206 -54 -325 -238 -288 -444 17 -97 80 -184 171 -235 28
-16 118 -57 201 -91 82 -34 165 -73 185 -85 135 -85 160 -246 54 -352 -79 -79
-218 -90 -350 -27 -108 51 -189 176 -207 319 -3 27 -8 30 -38 30 l-34 0 5 -45
c2 -25 4 -118 4 -207 l1 -162 55 3 c30 2 91 -6 135 -16 137 -32 228 -45 303
-42 278 11 455 176 454 424 -1 204 -84 291 -414 431 -174 73 -219 99 -255 146
-38 49 -39 143 -3 195 47 69 115 99 220 99 158 0 297 -111 316 -253 4 -27 9
-48 13 -49 64 -9 70 -8 62 14 -4 12 -7 83 -6 158 l2 137 -36 -5 c-24 -3 -73 8
-151 33 -145 47 -279 55 -399 24z"/>
<path d="M1220 1929 c0 -41 2 -42 58 -39 65 3 62 35 62 -590 0 -442 -3 -570
-12 -577 -7 -5 -34 -8 -60 -7 l-48 3 0 -39 c0 -22 3 -40 8 -41 4 0 132 -1 285
-2 215 -2 277 1 278 11 2 16 2 49 0 62 -1 6 -26 9 -59 8 -31 -1 -63 1 -70 5
-17 12 -17 410 1 429 6 7 24 28 39 46 l27 33 153 -228 c84 -125 157 -238 163
-251 13 -33 -8 -43 -77 -37 l-58 6 0 -41 c0 -31 4 -40 18 -41 79 -4 592 -1
604 3 13 6 15 22 9 71 -1 4 -18 5 -38 2 -28 -4 -44 -1 -59 12 -12 10 -101 137
-199 283 -99 146 -207 307 -242 358 -35 51 -63 96 -63 100 0 4 20 28 43 53 23
25 61 68 84 95 23 27 51 60 63 74 12 14 40 47 63 74 93 110 123 129 200 125
l52 -3 3 41 3 41 -198 -2 -198 -1 0 -40 0 -39 48 3 c40 2 47 0 47 -16 0 -15
-90 -137 -119 -163 -4 -3 -51 -59 -106 -125 -55 -66 -109 -131 -121 -145 -12
-14 -52 -60 -88 -103 l-66 -78 0 304 c0 253 2 307 14 317 9 7 38 10 71 9 57
-3 74 7 69 39 -1 6 -2 19 -3 27 -1 14 -38 15 -291 15 l-290 -1 0 -40z"/>
</g>
</svg>
