<svg width="30" height="23" viewBox="0 0 30 23" fill="none" xmlns="http://www.w3.org/2000/svg">
<path d="M11.6 17.604C11.6 19.1347 11.0493 20.3013 9.948 21.104C8.86533 21.888 7.30667 22.28 5.272 22.28C4.208 22.28 3.29333 22.2053 2.528 22.056C1.78133 21.9067 1.05333 21.6733 0.344 21.356V18.36C1.09067 18.7147 1.912 19.0133 2.808 19.256C3.72267 19.4987 4.58133 19.62 5.384 19.62C6.35467 19.62 7.05467 19.4707 7.484 19.172C7.91333 18.8733 8.128 18.472 8.128 17.968C8.128 17.6693 8.044 17.408 7.876 17.184C7.708 16.9413 7.372 16.68 6.868 16.4C6.38267 16.12 5.65467 15.7747 4.684 15.364C3.71333 14.9907 2.90133 14.608 2.248 14.216C1.61333 13.8053 1.128 13.3293 0.792 12.788C0.474667 12.2467 0.316 11.5467 0.316 10.688C0.316 9.32533 0.848 8.29867 1.912 7.608C2.99467 6.89867 4.432 6.544 6.224 6.544C7.15733 6.544 8.03467 6.63733 8.856 6.824C9.696 7.01067 10.536 7.29067 11.376 7.664L10.256 10.268C9.54667 9.96933 8.856 9.71733 8.184 9.512C7.512 9.30667 6.82133 9.204 6.112 9.204C4.56267 9.204 3.788 9.64267 3.788 10.52C3.788 10.8373 3.88133 11.108 4.068 11.332C4.27333 11.556 4.61867 11.7987 5.104 12.06C5.608 12.3027 6.31733 12.6013 7.232 12.956C8.128 13.3107 8.90267 13.684 9.556 14.076C10.2093 14.4493 10.7133 14.916 11.068 15.476C11.4227 16.036 11.6 16.7453 11.6 17.604Z" fill="#7CAFC4"/>
<path d="M19.3346 10.828C19.3346 11.3133 19.3159 11.8267 19.2786 12.368C19.2412 12.9093 19.2039 13.4227 19.1666 13.908H19.2506C19.4746 13.572 19.7546 13.1893 20.0906 12.76C20.4266 12.3307 20.7439 11.948 21.0426 11.612L25.5226 6.824H29.5266L23.4506 13.376L29.9186 22H25.8026L21.0986 15.504L19.3346 16.96V22H15.8346V0.719999H19.3346V10.828Z" fill="black"/>
</svg>
