<svg width="110" height="131" viewBox="0 0 110 131" fill="none" xmlns="http://www.w3.org/2000/svg">
<path opacity="0.7" d="M15.8646 51.383C15.8646 51.917 15.7656 52.466 15.5676 53.03C15.3696 53.588 15.0696 54.107 14.6676 54.587C14.2716 55.061 13.7706 55.445 13.1646 55.739C12.5586 56.033 11.8476 56.18 11.0316 56.18C9.90963 56.18 8.95563 55.889 8.16963 55.307C7.38363 54.719 6.78363 53.912 6.36963 52.886C5.96163 51.86 5.75763 50.687 5.75763 49.367C5.75763 48.041 5.96163 46.868 6.36963 45.848C6.78363 44.822 7.38363 44.018 8.16963 43.436C8.95563 42.854 9.90963 42.563 11.0316 42.563C11.9676 42.563 12.7656 42.755 13.4256 43.139C14.0856 43.523 14.6106 44.012 15.0006 44.606C15.3906 45.2 15.6456 45.812 15.7656 46.442C15.8316 46.76 15.8646 47.06 15.8646 47.342H14.3256C14.3256 47.18 14.3106 46.994 14.2806 46.784C14.2086 46.28 14.0346 45.815 13.7586 45.389C13.4886 44.957 13.1256 44.612 12.6696 44.354C12.2136 44.09 11.6676 43.958 11.0316 43.958C10.2876 43.958 9.63663 44.162 9.07863 44.57C8.52663 44.978 8.09463 45.584 7.78263 46.388C7.47663 47.192 7.32363 48.185 7.32363 49.367C7.32363 50.549 7.47663 51.545 7.78263 52.355C8.09463 53.159 8.52663 53.768 9.07863 54.182C9.63663 54.59 10.2876 54.794 11.0316 54.794C11.5656 54.794 12.0366 54.698 12.4446 54.506C12.8526 54.308 13.1946 54.047 13.4706 53.723C13.7526 53.393 13.9656 53.027 14.1096 52.625C14.2536 52.217 14.3256 51.803 14.3256 51.383H15.8646ZM19.7906 41.933V56H18.2786V41.933H19.7906ZM22.6809 56V46.442H24.1929V56H22.6809ZM23.4459 44.246C23.1639 44.246 22.9179 44.168 22.7079 44.012C22.5039 43.85 22.4019 43.631 22.4019 43.355C22.4019 43.085 22.5039 42.872 22.7079 42.716C22.9179 42.554 23.1639 42.473 23.4459 42.473C23.7279 42.473 23.9709 42.554 24.1749 42.716C24.3789 42.872 24.4809 43.085 24.4809 43.355C24.4809 43.631 24.3789 43.85 24.1749 44.012C23.9709 44.168 23.7279 44.246 23.4459 44.246ZM31.5741 56.18C30.6621 56.18 29.8341 55.982 29.0901 55.586C28.3461 55.184 27.7551 54.611 27.3171 53.867C26.8851 53.123 26.6691 52.238 26.6691 51.212C26.6691 50.186 26.8851 49.307 27.3171 48.575C27.7551 47.837 28.3461 47.273 29.0901 46.883C29.8341 46.493 30.6621 46.298 31.5741 46.298C32.2701 46.298 32.8911 46.406 33.4371 46.622C33.9831 46.832 34.4451 47.114 34.8231 47.468C35.2011 47.822 35.4891 48.212 35.6871 48.638C35.8911 49.058 35.9931 49.478 35.9931 49.898C35.9931 49.904 35.9931 49.913 35.9931 49.925C35.9931 49.937 35.9931 49.949 35.9931 49.961H34.4721C34.4721 49.931 34.4691 49.898 34.4631 49.862C34.4571 49.82 34.4511 49.778 34.4451 49.736C34.3971 49.334 34.2441 48.983 33.9861 48.683C33.7281 48.377 33.3921 48.137 32.9781 47.963C32.5641 47.789 32.0931 47.702 31.5651 47.702C30.9711 47.702 30.4191 47.831 29.9091 48.089C29.4051 48.341 28.9971 48.728 28.6851 49.25C28.3791 49.766 28.2261 50.42 28.2261 51.212C28.2261 51.998 28.3791 52.655 28.6851 53.183C28.9911 53.711 29.3961 54.11 29.9001 54.38C30.4101 54.644 30.9651 54.776 31.5651 54.776C32.2131 54.776 32.7471 54.674 33.1671 54.47C33.5871 54.266 33.9021 53.996 34.1121 53.66C34.3281 53.318 34.4481 52.952 34.4721 52.562H35.9931C35.9931 52.994 35.8971 53.426 35.7051 53.858C35.5131 54.284 35.2311 54.674 34.8591 55.028C34.4871 55.376 34.0251 55.655 33.4731 55.865C32.9271 56.075 32.2941 56.18 31.5741 56.18ZM38.376 56V41.933H39.834V50.555L39.393 50.357L43.965 46.442H45.945L41.364 50.474L41.769 49.691L45.981 56H44.334L40.779 50.537L41.094 50.717L39.609 52.004L39.834 51.275V56H38.376ZM55.9021 56.144C55.6081 56.144 55.3201 56.111 55.0381 56.045C54.7561 55.979 54.5011 55.862 54.2731 55.694C54.0511 55.52 53.8741 55.277 53.7421 54.965C53.6101 54.647 53.5441 54.239 53.5441 53.741C53.5441 53.615 53.5441 53.486 53.5441 53.354C53.5441 53.216 53.5441 53.072 53.5441 52.922V47.792H51.2131V46.442H52.7071C52.9111 46.442 53.0701 46.436 53.1841 46.424C53.2981 46.406 53.3791 46.367 53.4271 46.307C53.4811 46.241 53.5141 46.142 53.5261 46.01C53.5381 45.872 53.5441 45.683 53.5441 45.443V43.274H55.0831V46.442H58.0711V47.792H55.0831V52.427C55.0831 52.559 55.0831 52.688 55.0831 52.814C55.0831 52.94 55.0831 53.057 55.0831 53.165C55.0831 53.675 55.1431 54.074 55.2631 54.362C55.3891 54.65 55.6681 54.794 56.1001 54.794C56.2741 54.794 56.4391 54.779 56.5951 54.749C56.7511 54.719 56.8681 54.689 56.9461 54.659V55.991C56.8441 56.027 56.7001 56.06 56.5141 56.09C56.3341 56.126 56.1301 56.144 55.9021 56.144ZM64.2429 56.171C63.2829 56.171 62.4339 55.958 61.6959 55.532C60.9639 55.1 60.3879 54.512 59.9679 53.768C59.5539 53.018 59.3469 52.166 59.3469 51.212C59.3469 50.258 59.5539 49.412 59.9679 48.674C60.3879 47.936 60.9639 47.357 61.6959 46.937C62.4339 46.517 63.2829 46.307 64.2429 46.307C65.2029 46.307 66.0489 46.517 66.7809 46.937C67.5189 47.357 68.0949 47.936 68.5089 48.674C68.9289 49.412 69.1389 50.258 69.1389 51.212C69.1389 52.166 68.9289 53.018 68.5089 53.768C68.0949 54.512 67.5189 55.1 66.7809 55.532C66.0489 55.958 65.2029 56.171 64.2429 56.171ZM64.2429 54.767C64.9029 54.767 65.4849 54.62 65.9889 54.326C66.4929 54.032 66.8859 53.618 67.1679 53.084C67.4559 52.55 67.5999 51.926 67.5999 51.212C67.5999 50.498 67.4559 49.88 67.1679 49.358C66.8859 48.83 66.4929 48.425 65.9889 48.143C65.4849 47.855 64.9029 47.711 64.2429 47.711C63.5889 47.711 63.0069 47.855 62.4969 48.143C61.9929 48.425 61.5969 48.83 61.3089 49.358C61.0269 49.88 60.8859 50.498 60.8859 51.212C60.8859 51.926 61.0269 52.55 61.3089 53.084C61.5969 53.618 61.9929 54.032 62.4969 54.326C63.0069 54.62 63.5889 54.767 64.2429 54.767ZM17.0251 84.18C16.4491 84.18 15.9151 84.12 15.4231 84C14.9371 83.874 14.5111 83.694 14.1451 83.46C13.7851 83.22 13.5031 82.926 13.2991 82.578C13.1011 82.23 13.0021 81.831 13.0021 81.381C13.0021 81.333 13.0021 81.285 13.0021 81.237C13.0021 81.183 13.0021 81.138 13.0021 81.102H14.5411C14.5411 81.138 14.5411 81.168 14.5411 81.192C14.5411 81.216 14.5411 81.252 14.5411 81.3C14.5411 81.786 14.7661 82.158 15.2161 82.416C15.6661 82.668 16.2811 82.794 17.0611 82.794C17.5411 82.794 17.9701 82.746 18.3481 82.65C18.7261 82.554 19.0231 82.407 19.2391 82.209C19.4611 82.011 19.5721 81.762 19.5721 81.462C19.5721 80.964 19.3381 80.61 18.8701 80.4C18.4081 80.184 17.7151 79.998 16.7911 79.842C16.3051 79.758 15.8431 79.65 15.4051 79.518C14.9671 79.38 14.5771 79.203 14.2351 78.987C13.8991 78.771 13.6321 78.504 13.4341 78.186C13.2421 77.862 13.1461 77.475 13.1461 77.025C13.1461 76.443 13.3171 75.951 13.6591 75.549C14.0071 75.141 14.4751 74.832 15.0631 74.622C15.6511 74.406 16.3051 74.298 17.0251 74.298C17.7211 74.298 18.3631 74.409 18.9511 74.631C19.5391 74.853 20.0101 75.177 20.3641 75.603C20.7241 76.023 20.9041 76.542 20.9041 77.16C20.9041 77.184 20.9041 77.214 20.9041 77.25C20.9041 77.28 20.9041 77.31 20.9041 77.34H19.3741C19.3741 77.31 19.3741 77.286 19.3741 77.268C19.3741 77.25 19.3741 77.229 19.3741 77.205C19.3741 76.857 19.2631 76.572 19.0411 76.35C18.8191 76.122 18.5311 75.954 18.1771 75.846C17.8231 75.732 17.4451 75.675 17.0431 75.675C16.6651 75.675 16.2931 75.717 15.9271 75.801C15.5611 75.879 15.2581 76.011 15.0181 76.197C14.7781 76.383 14.6581 76.638 14.6581 76.962C14.6581 77.286 14.7691 77.547 14.9911 77.745C15.2191 77.937 15.5371 78.096 15.9451 78.222C16.3591 78.342 16.8451 78.453 17.4031 78.555C17.9011 78.645 18.3721 78.759 18.8161 78.897C19.2601 79.029 19.6501 79.2 19.9861 79.41C20.3281 79.62 20.5951 79.887 20.7871 80.211C20.9851 80.529 21.0841 80.919 21.0841 81.381C21.0841 81.849 20.9761 82.257 20.7601 82.605C20.5501 82.953 20.2561 83.244 19.8781 83.478C19.5061 83.712 19.0741 83.886 18.5821 84C18.0961 84.12 17.5771 84.18 17.0251 84.18ZM30.8923 84L28.2193 74.442H29.5783L32.1073 83.325H31.8283L33.5023 74.442H35.0953L33.0343 84H30.8923ZM24.4303 84L22.3513 74.442H23.9443L25.6363 83.325H25.3573L27.8593 74.442H29.2183L26.5813 84H24.4303ZM40.1769 84.18C39.4509 84.18 38.8149 84.066 38.2689 83.838C37.7289 83.61 37.3089 83.283 37.0089 82.857C36.7089 82.425 36.5589 81.909 36.5589 81.309C36.5589 80.685 36.7209 80.166 37.0449 79.752C37.3689 79.332 37.8249 79.005 38.4129 78.771C39.0009 78.537 39.6849 78.381 40.4649 78.303C41.6409 78.183 42.4779 78.066 42.9759 77.952C43.4739 77.832 43.7229 77.64 43.7229 77.376C43.7229 77.37 43.7229 77.367 43.7229 77.367C43.7229 77.361 43.7229 77.355 43.7229 77.349C43.7229 76.797 43.4979 76.386 43.0479 76.116C42.5979 75.84 41.9469 75.702 41.0949 75.702C40.2069 75.702 39.5169 75.858 39.0249 76.17C38.5329 76.476 38.2869 76.974 38.2869 77.664H36.7749C36.7749 76.95 36.9579 76.344 37.3239 75.846C37.6899 75.342 38.1969 74.958 38.8449 74.694C39.4989 74.43 40.2519 74.298 41.1039 74.298C41.8839 74.298 42.5859 74.418 43.2099 74.658C43.8399 74.892 44.3379 75.243 44.7039 75.711C45.0759 76.173 45.2619 76.746 45.2619 77.43C45.2619 77.556 45.2619 77.682 45.2619 77.808C45.2619 77.928 45.2619 78.051 45.2619 78.177V82.2C45.2619 82.41 45.2709 82.614 45.2889 82.812C45.3069 83.01 45.3369 83.184 45.3789 83.334C45.4329 83.514 45.4929 83.661 45.5589 83.775C45.6249 83.883 45.6789 83.958 45.7209 84H44.1819C44.1519 83.97 44.1069 83.901 44.0469 83.793C43.9869 83.679 43.9299 83.547 43.8759 83.397C43.8339 83.277 43.8009 83.127 43.7769 82.947C43.7529 82.761 43.7409 82.569 43.7409 82.371L43.9929 82.542C43.8069 82.866 43.5339 83.151 43.1739 83.397C42.8199 83.643 42.3909 83.835 41.8869 83.973C41.3829 84.111 40.8129 84.18 40.1769 84.18ZM40.4199 82.803C41.0379 82.803 41.5959 82.71 42.0939 82.524C42.5919 82.332 42.9879 82.05 43.2819 81.678C43.5759 81.306 43.7229 80.844 43.7229 80.292V78.393L44.0649 78.969C43.6809 79.119 43.2009 79.242 42.6249 79.338C42.0549 79.428 41.4579 79.503 40.8339 79.563C39.9279 79.647 39.2439 79.806 38.7819 80.04C38.3259 80.274 38.0979 80.667 38.0979 81.219C38.0979 81.741 38.2869 82.137 38.6649 82.407C39.0429 82.671 39.6279 82.803 40.4199 82.803ZM47.8067 87.933V74.442H49.3367V87.933H47.8067ZM52.4777 84.18C51.7397 84.18 51.0497 84 50.4077 83.64C49.7657 83.274 49.2437 82.773 48.8417 82.137C48.4457 81.501 48.2477 80.775 48.2477 79.959C48.2477 79.941 48.2477 79.926 48.2477 79.914C48.2477 79.902 48.2477 79.887 48.2477 79.869L49.3457 79.842C49.3457 79.854 49.3457 79.869 49.3457 79.887C49.3457 79.899 49.3457 79.911 49.3457 79.923C49.3457 80.439 49.4807 80.91 49.7507 81.336C50.0267 81.762 50.3867 82.101 50.8307 82.353C51.2747 82.605 51.7517 82.731 52.2617 82.731C53.1077 82.731 53.8097 82.443 54.3677 81.867C54.9317 81.285 55.2137 80.4 55.2137 79.212C55.2137 78.018 54.9347 77.136 54.3767 76.566C53.8187 75.99 53.1137 75.702 52.2617 75.702C51.7517 75.702 51.2747 75.828 50.8307 76.08C50.3867 76.326 50.0267 76.659 49.7507 77.079C49.4807 77.499 49.3457 77.97 49.3457 78.492L48.2477 78.456C48.2477 77.634 48.4457 76.911 48.8417 76.287C49.2437 75.663 49.7657 75.177 50.4077 74.829C51.0497 74.475 51.7397 74.298 52.4777 74.298C53.2517 74.298 53.9657 74.49 54.6197 74.874C55.2737 75.252 55.7987 75.807 56.1947 76.539C56.5907 77.271 56.7887 78.162 56.7887 79.212C56.7887 80.28 56.5937 81.186 56.2037 81.93C55.8137 82.668 55.2917 83.229 54.6377 83.613C53.9837 83.991 53.2637 84.18 52.4777 84.18ZM60.7547 70.743L60.4847 80.877H59.4947L59.2157 70.743H60.7547ZM59.9897 84.234C59.6957 84.234 59.4467 84.135 59.2427 83.937C59.0447 83.733 58.9457 83.484 58.9457 83.19C58.9457 82.902 59.0447 82.656 59.2427 82.452C59.4467 82.248 59.6957 82.146 59.9897 82.146C60.2777 82.146 60.5237 82.248 60.7277 82.452C60.9317 82.656 61.0337 82.902 61.0337 83.19C61.0337 83.484 60.9317 83.733 60.7277 83.937C60.5237 84.135 60.2777 84.234 59.9897 84.234Z" fill="#3A3A3A"/>
<path opacity="0.4" d="M103.129 129.696C103.514 130.43 104.42 130.713 105.154 130.329C105.888 129.944 106.171 129.038 105.787 128.304L103.129 129.696ZM105.89 1.55288C105.643 0.762108 104.802 0.321249 104.011 0.568189L91.1248 4.5923C90.334 4.83924 89.8932 5.68047 90.1401 6.47124C90.387 7.262 91.2283 7.70286 92.019 7.45592L103.474 3.87893L107.051 15.3334C107.297 16.1242 108.139 16.565 108.929 16.3181C109.72 16.0712 110.161 15.2299 109.914 14.4392L105.89 1.55288ZM105.787 128.304C93.7346 105.294 86.9493 86.9864 86.5215 67.9511C86.094 48.9256 92.0149 28.9752 105.787 2.69628L103.13 1.30372C89.2439 27.7998 83.0786 48.275 83.5223 68.0185C83.9658 87.7523 91.0093 106.557 103.129 129.696L105.787 128.304Z" fill="#3A3A3A"/>
</svg>
