<svg width="425" height="452" viewBox="0 0 425 452" fill="none" xmlns="http://www.w3.org/2000/svg">
<path d="M41.466 132.715C40.8336 105.83 41.9402 77.5218 52.0582 52.0602C61.3857 28.8128 84.6254 1.45349 111.817 0.0301798C129.366 -0.918697 138.061 20.7473 148.495 31.185C215.052 98.3971 317.813 54.7487 394.172 96.4993C407.61 103.774 419.625 115.477 423.577 130.659C427.687 146.473 422.312 163.237 414.882 177.786C397.333 211.946 369.983 237.407 342.159 263.027C317.655 285.484 275.286 308.89 272.44 346.054C271.333 361.078 282.874 373.888 286.036 387.963C294.099 424.811 254.259 448.691 222.799 451.537C186.279 454.858 147.546 440.151 122.726 412.317C90.3167 375.943 80.673 296.08 22.3367 289.912C16.6454 289.279 10.3216 289.596 5.73693 286.275C-0.902976 281.53 -1.37725 271.251 2.25889 263.976C7.63405 252.906 17.1196 244.998 23.9176 234.877C43.3631 205.304 42.2564 168.772 41.466 132.715Z" fill="url(#paint0_linear_157_3587)"/>
<defs>
<linearGradient id="paint0_linear_157_3587" x1="32.9586" y1="175.185" x2="450.024" y2="333.63" gradientUnits="userSpaceOnUse">
<stop offset="2.54313e-07" stop-color="#E9B7D4"/>
<stop offset="1" stop-color="#7FACD6"/>
</linearGradient>
</defs>
</svg>
