<svg width="1512" height="564" viewBox="0 0 1512 564" fill="none" xmlns="http://www.w3.org/2000/svg">
<path d="M7.6294e-06 142.391C7.6294e-06 142.391 145.5 30.5917 428.5 48.3905C711.5 66.1893 1201.41 230.574 1512 0V250.296C1512 250.296 1443 432.371 1142 473.893C841 515.416 608.5 454.982 350.5 473.893C92.5 492.805 3.05176e-05 564 3.05176e-05 564C3.05176e-05 564 0 426.615 7.6294e-06 295.349C3.05176e-05 169.645 7.6294e-06 142.391 7.6294e-06 142.391Z" fill="url(#paint0_linear_202_4493)"/>
<defs>
<linearGradient id="paint0_linear_202_4493" x1="1.49996" y1="272.276" x2="1512.52" y2="214.217" gradientUnits="userSpaceOnUse">
<stop stop-color="#FFFBAF"/>
<stop offset="1" stop-color="#A7BDEA"/>
</linearGradient>
</defs>
</svg>
