<svg width="141" height="27" viewBox="0 0 141 27" fill="none" xmlns="http://www.w3.org/2000/svg">
<path d="M0.7 19.376L2.184 17.248C3.09867 17.8267 3.90133 18.2373 4.592 18.48C5.28267 18.7227 5.98267 18.844 6.692 18.844C7.532 18.844 8.21333 18.676 8.736 18.34C9.25867 17.9853 9.52 17.528 9.52 16.968C9.52 16.5387 9.36133 16.2027 9.044 15.96C8.74533 15.6987 8.26 15.5027 7.588 15.372L5.096 14.952C3.752 14.7093 2.73467 14.2707 2.044 13.636C1.372 12.9827 1.036 12.1333 1.036 11.088C1.036 9.78133 1.53067 8.736 2.52 7.952C3.528 7.14933 4.844 6.748 6.468 6.748C7.43867 6.748 8.372 6.888 9.268 7.168C10.1827 7.42933 11.088 7.84933 11.984 8.428L10.5 10.5C9.772 10.0333 9.06267 9.69733 8.372 9.492C7.68133 9.268 6.98133 9.156 6.272 9.156C5.544 9.156 4.956 9.30533 4.508 9.604C4.07867 9.884 3.864 10.2853 3.864 10.808C3.864 11.256 4.004 11.592 4.284 11.816C4.58267 12.04 5.10533 12.2173 5.852 12.348L8.316 12.796C9.716 13.0573 10.752 13.5147 11.424 14.168C12.1147 14.8213 12.46 15.6707 12.46 16.716C12.46 17.3507 12.3107 17.948 12.012 18.508C11.732 19.068 11.3307 19.5533 10.808 19.964C10.304 20.3747 9.69733 20.7013 8.988 20.944C8.29733 21.168 7.55067 21.28 6.748 21.28C5.53467 21.28 4.40533 21.1213 3.36 20.804C2.33333 20.468 1.44667 19.992 0.7 19.376ZM17.0944 17.304V9.492H14.2664V6.972H17.0944V3.108L20.2584 2.436V6.972H24.1784V9.492H20.2584V16.604C20.2584 17.2947 20.4078 17.7893 20.7064 18.088C21.0051 18.368 21.5091 18.508 22.2184 18.508C22.5358 18.508 22.8251 18.4893 23.0864 18.452C23.3664 18.396 23.7118 18.3027 24.1224 18.172V20.832C23.7118 20.9627 23.2544 21.056 22.7504 21.112C22.2651 21.1867 21.8171 21.224 21.4064 21.224C20.0064 21.224 18.9331 20.8973 18.1864 20.244C17.4584 19.572 17.0944 18.592 17.0944 17.304ZM30.9282 21.224C29.4722 21.224 28.2775 20.832 27.3442 20.048C26.4295 19.2453 25.9722 18.2187 25.9722 16.968C25.9722 15.7173 26.4482 14.7187 27.4002 13.972C28.3709 13.2253 29.6775 12.852 31.3202 12.852C31.9735 12.852 32.6082 12.9267 33.2242 13.076C33.8402 13.2067 34.4655 13.4213 35.1002 13.72V12.18C35.1002 11.2653 34.8295 10.5747 34.2882 10.108C33.7469 9.62267 32.9442 9.38 31.8802 9.38C31.3015 9.38 30.6762 9.47333 30.0042 9.66C29.3322 9.828 28.5949 10.0987 27.7922 10.472L26.6722 8.176C27.7175 7.69067 28.7162 7.336 29.6682 7.112C30.6202 6.86933 31.5629 6.748 32.4962 6.748C34.3069 6.748 35.7162 7.196 36.7242 8.092C37.7322 8.96933 38.2362 10.22 38.2362 11.844V21H35.1002V19.572C34.4655 20.1507 33.8122 20.5707 33.1402 20.832C32.4682 21.0933 31.7309 21.224 30.9282 21.224ZM28.9402 16.912C28.9402 17.5467 29.2015 18.06 29.7242 18.452C30.2469 18.8253 30.9375 19.012 31.7962 19.012C32.4309 19.012 33.0189 18.9187 33.5602 18.732C34.1202 18.5453 34.6335 18.256 35.1002 17.864V15.568C34.5962 15.3253 34.0829 15.1573 33.5602 15.064C33.0375 14.952 32.4682 14.896 31.8522 14.896C30.9562 14.896 30.2469 15.0827 29.7242 15.456C29.2015 15.8107 28.9402 16.296 28.9402 16.912ZM48.4227 18.48C49.0947 18.48 49.7201 18.3493 50.2987 18.088C50.8961 17.8267 51.4001 17.444 51.8107 16.94L53.7147 18.844C53.0614 19.5907 52.2494 20.188 51.2787 20.636C50.3081 21.0653 49.2907 21.28 48.2267 21.28C47.2374 21.28 46.3041 21.0933 45.4267 20.72C44.5681 20.3467 43.8214 19.8333 43.1867 19.18C42.5521 18.5267 42.0481 17.752 41.6747 16.856C41.3201 15.96 41.1427 15.008 41.1427 14C41.1427 12.992 41.3201 12.0493 41.6747 11.172C42.0481 10.276 42.5521 9.51067 43.1867 8.876C43.8214 8.22267 44.5681 7.70933 45.4267 7.336C46.3041 6.96267 47.2374 6.776 48.2267 6.776C49.3094 6.776 50.3361 6.98133 51.3067 7.392C52.2961 7.80267 53.1361 8.38133 53.8267 9.128L51.8667 11.172C51.3814 10.6307 50.8401 10.22 50.2427 9.94C49.6454 9.66 49.0107 9.52 48.3387 9.52C47.2187 9.52 46.2667 9.95867 45.4827 10.836C44.6987 11.6947 44.3067 12.7493 44.3067 14C44.3067 15.2693 44.6987 16.3333 45.4827 17.192C46.2667 18.0507 47.2467 18.48 48.4227 18.48ZM59.159 22.568L59.747 21.084L54.455 6.972H57.983L61.539 17.388L65.459 6.972H68.903L62.239 23.296C61.7163 24.64 61.0723 25.592 60.307 26.152C59.5603 26.712 58.543 26.992 57.255 26.992C57.0123 26.992 56.751 26.9733 56.471 26.936C56.2096 26.9173 55.939 26.8707 55.659 26.796V24.08C56.0323 24.1173 56.2936 24.1453 56.443 24.164C56.611 24.1827 56.7603 24.192 56.891 24.192C57.451 24.192 57.9083 24.0613 58.263 23.8C58.6363 23.5387 58.935 23.128 59.159 22.568Z" fill="#7CAFC4"/>
<path d="M76.9311 21V0.979999L80.0951 0.447999V12.964L85.9191 6.972H89.5311L83.1191 13.468L89.9231 21H85.8631L80.0951 14.532V21H76.9311ZM97.3435 21H94.2635L90.4835 6.972H93.5075L95.9715 16.884L98.8555 6.972H101.544L104.428 16.912L106.864 6.972H109.832L106.052 21H103L100.172 11.116L97.3435 21ZM110.967 14C110.967 12.9733 111.144 12.0213 111.499 11.144C111.872 10.248 112.367 9.48267 112.983 8.848C113.617 8.19467 114.364 7.68133 115.223 7.308C116.1 6.93467 117.033 6.748 118.023 6.748C119.031 6.748 119.964 6.93467 120.823 7.308C121.681 7.68133 122.428 8.19467 123.063 8.848C123.697 9.48267 124.192 10.248 124.547 11.144C124.901 12.0213 125.079 12.9733 125.079 14C125.079 15.0267 124.892 15.988 124.519 16.884C124.164 17.78 123.669 18.5547 123.035 19.208C122.419 19.8427 121.672 20.3467 120.795 20.72C119.936 21.0933 119.012 21.28 118.023 21.28C117.033 21.28 116.1 21.0933 115.223 20.72C114.364 20.3467 113.617 19.8333 112.983 19.18C112.367 18.5267 111.872 17.7613 111.499 16.884C111.144 15.988 110.967 15.0267 110.967 14ZM118.023 18.536C119.161 18.536 120.095 18.1067 120.823 17.248C121.569 16.3893 121.943 15.316 121.943 14.028C121.943 12.7027 121.569 11.6107 120.823 10.752C120.076 9.89333 119.143 9.464 118.023 9.464C116.884 9.464 115.941 9.89333 115.195 10.752C114.467 11.6107 114.103 12.7027 114.103 14.028C114.103 15.3347 114.467 16.4173 115.195 17.276C115.941 18.116 116.884 18.536 118.023 18.536ZM127.785 21V0.979999L130.949 0.447999V12.964L136.773 6.972H140.385L133.973 13.468L140.777 21H136.717L130.949 14.532V21H127.785Z" fill="black"/>
</svg>
