<svg width="149" height="28" viewBox="0 0 149 28" fill="none" xmlns="http://www.w3.org/2000/svg">
<path d="M11.152 6.84C10.8533 5.25333 9.73333 4.46 7.792 4.46C6.84 4.46 6.09333 4.656 5.552 5.048C5.02933 5.42133 4.768 5.87867 4.768 6.42C4.768 6.96133 4.936 7.39067 5.272 7.708C5.62667 8.00667 6.168 8.28667 6.896 8.548L10.844 10.088C12.188 10.6107 13.224 11.2733 13.952 12.076C14.68 12.86 15.044 13.8493 15.044 15.044C15.044 16.6867 14.428 17.9933 13.196 18.964C11.964 19.916 10.2093 20.392 7.932 20.392C5.916 20.392 4.28267 19.8973 3.032 18.908C1.632 17.8253 0.894667 16.2947 0.82 14.316H4.096C4.096 15.8093 4.87067 16.752 6.42 17.144C6.88667 17.2747 7.50267 17.34 8.268 17.34C9.03333 17.34 9.74267 17.1533 10.396 16.78C11.0493 16.388 11.376 15.8747 11.376 15.24C11.376 14.5867 11.1987 14.092 10.844 13.756C10.4893 13.4013 9.91067 13.0747 9.108 12.776L5.496 11.348C4.096 10.8067 3.02267 10.172 2.276 9.444C1.52933 8.716 1.156 7.708 1.156 6.42C1.156 4.908 1.744 3.71333 2.92 2.836C4.11467 1.92133 5.72933 1.464 7.764 1.464C9.81733 1.464 11.3947 1.94 12.496 2.892C13.616 3.82533 14.26 5.14133 14.428 6.84H11.152ZM26.8515 19.664C25.6195 20.1493 24.6488 20.392 23.9395 20.392C23.2301 20.392 22.6048 20.308 22.0635 20.14C21.5408 19.972 21.0741 19.72 20.6635 19.384C19.8048 18.6187 19.3755 17.564 19.3755 16.22V8.604H17.4715V6.392H19.3755V2.808H22.6795V6.392H26.3755V8.604H22.6795V16.108C22.6795 17.228 23.2115 17.788 24.2755 17.788C24.8168 17.788 25.5168 17.6387 26.3755 17.34L26.8515 19.664ZM34.4263 12.048C35.509 12.048 36.7597 12.2253 38.1783 12.58V11.236C38.1783 10.284 37.9823 9.584 37.5903 9.136C37.217 8.66933 36.5917 8.436 35.7143 8.436C34.8557 8.436 34.193 8.61333 33.7263 8.968C33.2597 9.304 33.0263 9.78933 33.0263 10.424H29.4143C29.4143 8.87467 29.9557 7.75467 31.0383 7.064C32.1397 6.37333 33.6703 6.028 35.6303 6.028C38.4303 6.028 40.241 7.008 41.0623 8.968C41.3423 9.64 41.4823 10.4333 41.4823 11.348V20H38.5983L38.3463 18.18C37.469 19.6547 36.125 20.392 34.3143 20.392C32.5597 20.392 31.197 19.9627 30.2263 19.104C29.3303 18.2827 28.8823 17.2467 28.8823 15.996C28.8823 14.7267 29.377 13.756 30.3663 13.084C31.3557 12.3933 32.709 12.048 34.4263 12.048ZM38.1783 14.68C37.077 14.3813 36.0503 14.232 35.0983 14.232C33.3063 14.232 32.4103 14.8293 32.4103 16.024C32.4103 16.528 32.6157 16.9667 33.0263 17.34C33.437 17.6947 34.0903 17.872 34.9863 17.872C35.901 17.872 36.6477 17.5733 37.2263 16.976C37.8237 16.36 38.141 15.5947 38.1783 14.68ZM51.1979 6.028C52.0566 6.028 52.8219 6.17733 53.4939 6.476C54.1846 6.756 54.7632 7.12933 55.2299 7.596C56.1632 8.492 56.7139 9.62133 56.8819 10.984L53.5499 11.068C53.4006 10.4707 53.1206 9.976 52.7099 9.584C52.3179 9.192 51.8606 8.996 51.3379 8.996C50.8152 8.996 50.3672 9.08 49.9939 9.248C49.6206 9.39733 49.2939 9.64 49.0139 9.976C48.3792 10.76 48.0619 11.8427 48.0619 13.224C48.0619 14.6053 48.3606 15.6507 48.9579 16.36C49.5552 17.0507 50.2739 17.396 51.1139 17.396C51.9726 17.396 52.5886 17.2 52.9619 16.808C53.3539 16.3973 53.5499 15.8467 53.5499 15.156H56.8819C56.8819 16.6493 56.3872 17.8907 55.3979 18.88C54.3899 19.888 52.9806 20.392 51.1699 20.392C49.3779 20.392 47.8752 19.7387 46.6619 18.432C45.3739 17.032 44.7299 15.2867 44.7299 13.196C44.7299 10.9933 45.3739 9.22933 46.6619 7.904C47.8752 6.65333 49.3872 6.028 51.1979 6.028ZM62.2656 6.392L65.5416 16.192L68.3976 6.392H71.7576L66.5496 22.464C66.0082 24.088 65.3456 25.2547 64.5616 25.964C63.7962 26.6733 62.8162 27.028 61.6216 27.028C60.4082 27.028 59.1949 26.7293 57.9816 26.132V23.22C58.9522 23.836 59.9322 24.144 60.9216 24.144C61.5749 24.144 62.1069 23.8827 62.5176 23.36C62.9469 22.8373 63.2922 22.156 63.5536 21.316L63.9736 20L58.5136 6.392H62.2656Z" fill="#7CAFC4"/>
<path d="M84.549 1.828V9.304L91.717 1.828H96.253L88.245 10.004L96.785 20H92.501L86.033 12.3L84.549 13.812V20H81.217V1.828H84.549ZM100.181 6.392L102.925 16.108L105.529 7.148H108.525L111.129 16.136L113.901 6.392H117.205L112.725 20H109.477L106.957 11.852L104.493 20H101.217L96.7093 6.392H100.181ZM125.264 6.028C126.179 6.028 127.037 6.17733 127.84 6.476C128.643 6.756 129.333 7.19467 129.912 7.792C131.2 9.09867 131.844 10.9093 131.844 13.224C131.844 15.5013 131.2 17.2933 129.912 18.6C128.755 19.7947 127.205 20.392 125.264 20.392C123.323 20.392 121.755 19.7947 120.56 18.6C119.272 17.312 118.628 15.52 118.628 13.224C118.628 10.8907 119.272 9.08 120.56 7.792C121.736 6.616 123.304 6.028 125.264 6.028ZM128.54 13.196C128.54 11.7587 128.26 10.6853 127.7 9.976C127.14 9.248 126.356 8.884 125.348 8.884C124.359 8.884 123.547 9.248 122.912 9.976C122.277 10.6853 121.96 11.7587 121.96 13.196C121.96 14.6333 122.24 15.716 122.8 16.444C123.379 17.1533 124.163 17.508 125.152 17.508C126.141 17.508 126.953 17.1533 127.588 16.444C128.223 15.716 128.54 14.6333 128.54 13.196ZM139.751 13.364L138.239 14.624V20H134.935V0.791999H138.239V11.18L143.615 6.392H148.095L142.075 11.432L148.431 20H144.399L139.751 13.364Z" fill="black"/>
</svg>
