<svg width="160" height="27" viewBox="0 0 160 27" fill="none" xmlns="http://www.w3.org/2000/svg">
<path d="M6.916 21.196C5.70267 21.196 4.51733 21.0373 3.36 20.72C2.20267 20.4027 1.27867 20.0013 0.588 19.516L1.932 16.856C2.604 17.304 3.40667 17.668 4.34 17.948C5.292 18.2093 6.22533 18.34 7.14 18.34C9.23067 18.34 10.276 17.7893 10.276 16.688C10.276 16.1653 10.0053 15.8013 9.464 15.596C8.94133 15.3907 8.092 15.1947 6.916 15.008C5.684 14.8213 4.676 14.6067 3.892 14.364C3.12667 14.1213 2.45467 13.7013 1.876 13.104C1.316 12.488 1.036 11.6387 1.036 10.556C1.036 9.13733 1.624 8.008 2.8 7.168C3.99467 6.30933 5.6 5.88 7.616 5.88C8.64267 5.88 9.66933 6.00133 10.696 6.244C11.7227 6.468 12.5627 6.776 13.216 7.168L11.872 9.828C10.6027 9.08133 9.17467 8.708 7.588 8.708C6.56133 8.708 5.77733 8.86667 5.236 9.184C4.71333 9.48267 4.452 9.884 4.452 10.388C4.452 10.948 4.732 11.3493 5.292 11.592C5.87067 11.816 6.75733 12.0307 7.952 12.236C9.14667 12.4227 10.1267 12.6373 10.892 12.88C11.6573 13.1227 12.3107 13.5333 12.852 14.112C13.412 14.6907 13.692 15.512 13.692 16.576C13.692 17.976 13.0853 19.096 11.872 19.936C10.6587 20.776 9.00667 21.196 6.916 21.196ZM26.1142 20.188C25.7035 20.524 25.1995 20.776 24.6022 20.944C24.0235 21.112 23.4075 21.196 22.7542 21.196C21.1115 21.196 19.8422 20.7667 18.9462 19.908C18.0502 19.0493 17.6022 17.7987 17.6022 16.156V8.96H15.1382V6.16H17.6022V2.744H21.1022V6.16H25.1062V8.96H21.1022V16.072C21.1022 16.8 21.2795 17.36 21.6342 17.752C21.9888 18.1253 22.5022 18.312 23.1742 18.312C23.9582 18.312 24.6115 18.1067 25.1342 17.696L26.1142 20.188ZM34.7053 5.88C36.908 5.88 38.588 6.412 39.7453 7.476C40.9213 8.52133 41.5093 10.108 41.5093 12.236V21H38.2053V19.18C37.776 19.8333 37.16 20.3373 36.3573 20.692C35.5733 21.028 34.6213 21.196 33.5013 21.196C32.3813 21.196 31.4013 21.0093 30.5613 20.636C29.7213 20.244 29.068 19.712 28.6013 19.04C28.1533 18.3493 27.9293 17.5747 27.9293 16.716C27.9293 15.372 28.424 14.2987 29.4133 13.496C30.4213 12.6747 31.9987 12.264 34.1453 12.264H38.0093V12.04C38.0093 10.9947 37.692 10.192 37.0573 9.632C36.4413 9.072 35.5173 8.792 34.2853 8.792C33.4453 8.792 32.6147 8.92267 31.7933 9.184C30.9907 9.44533 30.3093 9.80933 29.7493 10.276L28.3773 7.728C29.1613 7.13067 30.104 6.67333 31.2053 6.356C32.3067 6.03867 33.4733 5.88 34.7053 5.88ZM34.2293 18.648C35.1067 18.648 35.8813 18.452 36.5533 18.06C37.244 17.6493 37.7293 17.0707 38.0093 16.324V14.588H34.3973C32.3813 14.588 31.3733 15.2507 31.3733 16.576C31.3733 17.2107 31.6253 17.7147 32.1293 18.088C32.6333 18.4613 33.3333 18.648 34.2293 18.648ZM52.0212 21.196C50.4718 21.196 49.0812 20.8693 47.8492 20.216C46.6172 19.5627 45.6558 18.6573 44.9652 17.5C44.2745 16.324 43.9292 14.9987 43.9292 13.524C43.9292 12.0493 44.2745 10.7333 44.9652 9.576C45.6558 8.41867 46.6078 7.51333 47.8212 6.86C49.0532 6.20667 50.4532 5.88 52.0212 5.88C53.4958 5.88 54.7838 6.17867 55.8852 6.776C57.0052 7.37333 57.8452 8.232 58.4052 9.352L55.7172 10.92C55.2878 10.2293 54.7465 9.716 54.0932 9.38C53.4585 9.02533 52.7585 8.848 51.9932 8.848C50.6865 8.848 49.6038 9.27733 48.7452 10.136C47.8865 10.976 47.4572 12.1053 47.4572 13.524C47.4572 14.9427 47.8772 16.0813 48.7172 16.94C49.5758 17.78 50.6678 18.2 51.9932 18.2C52.7585 18.2 53.4585 18.032 54.0932 17.696C54.7465 17.3413 55.2878 16.8187 55.7172 16.128L58.4052 17.696C57.8265 18.816 56.9772 19.684 55.8572 20.3C54.7558 20.8973 53.4772 21.196 52.0212 21.196ZM74.9593 6.048L67.9593 22.204C67.3059 23.828 66.5126 24.9667 65.5793 25.62C64.6459 26.292 63.5166 26.628 62.1913 26.628C61.4446 26.628 60.7073 26.5067 59.9793 26.264C59.2513 26.0213 58.6539 25.6853 58.1873 25.256L59.5873 22.68C59.9233 22.9973 60.3153 23.2493 60.7633 23.436C61.2299 23.6227 61.6966 23.716 62.1633 23.716C62.7793 23.716 63.2833 23.5573 63.6753 23.24C64.0859 22.9227 64.4593 22.3907 64.7953 21.644L65.0473 21.056L58.5233 6.048H62.1633L66.8673 17.108L71.5993 6.048H74.9593Z" fill="#7CAFC4"/>
<path d="M90.4291 14.588L87.8251 17.052V21H84.3251V0.223999H87.8251V12.768L95.0771 6.048H99.2771L93.0331 12.32L99.8651 21H95.6091L90.4291 14.588ZM125.17 6.048L119.654 21H116.294L112.43 10.696L108.51 21H105.15L99.6618 6.048H102.966L106.914 17.08L111.03 6.048H113.97L118.002 17.136L122.062 6.048H125.17ZM133.736 21.196C132.224 21.196 130.862 20.8693 129.648 20.216C128.435 19.5627 127.483 18.6573 126.792 17.5C126.12 16.324 125.784 14.9987 125.784 13.524C125.784 12.0493 126.12 10.7333 126.792 9.576C127.483 8.41867 128.435 7.51333 129.648 6.86C130.862 6.20667 132.224 5.88 133.736 5.88C135.267 5.88 136.639 6.20667 137.852 6.86C139.066 7.51333 140.008 8.41867 140.68 9.576C141.371 10.7333 141.716 12.0493 141.716 13.524C141.716 14.9987 141.371 16.324 140.68 17.5C140.008 18.6573 139.066 19.5627 137.852 20.216C136.639 20.8693 135.267 21.196 133.736 21.196ZM133.736 18.2C135.024 18.2 136.088 17.7707 136.928 16.912C137.768 16.0533 138.188 14.924 138.188 13.524C138.188 12.124 137.768 10.9947 136.928 10.136C136.088 9.27733 135.024 8.848 133.736 8.848C132.448 8.848 131.384 9.27733 130.544 10.136C129.723 10.9947 129.312 12.124 129.312 13.524C129.312 14.924 129.723 16.0533 130.544 16.912C131.384 17.7707 132.448 18.2 133.736 18.2ZM150.327 14.588L147.723 17.052V21H144.223V0.223999H147.723V12.768L154.975 6.048H159.175L152.931 12.32L159.763 21H155.507L150.327 14.588Z" fill="black"/>
</svg>
