<svg width="152" height="29" viewBox="0 0 152 29" fill="none" xmlns="http://www.w3.org/2000/svg">
<path d="M11.6 17.604C11.6 19.1347 11.0493 20.3013 9.948 21.104C8.86533 21.888 7.30667 22.28 5.272 22.28C4.208 22.28 3.29333 22.2053 2.528 22.056C1.78133 21.9067 1.05333 21.6733 0.344 21.356V18.36C1.09067 18.7147 1.912 19.0133 2.808 19.256C3.72267 19.4987 4.58133 19.62 5.384 19.62C6.35467 19.62 7.05467 19.4707 7.484 19.172C7.91333 18.8733 8.128 18.472 8.128 17.968C8.128 17.6693 8.044 17.408 7.876 17.184C7.708 16.9413 7.372 16.68 6.868 16.4C6.38267 16.12 5.65467 15.7747 4.684 15.364C3.71333 14.9907 2.90133 14.608 2.248 14.216C1.61333 13.8053 1.128 13.3293 0.792 12.788C0.474667 12.2467 0.316 11.5467 0.316 10.688C0.316 9.32533 0.848 8.29867 1.912 7.608C2.99467 6.89867 4.432 6.544 6.224 6.544C7.15733 6.544 8.03467 6.63733 8.856 6.824C9.696 7.01067 10.536 7.29067 11.376 7.664L10.256 10.268C9.54667 9.96933 8.856 9.71733 8.184 9.512C7.512 9.30667 6.82133 9.204 6.112 9.204C4.56267 9.204 3.788 9.64267 3.788 10.52C3.788 10.8373 3.88133 11.108 4.068 11.332C4.27333 11.556 4.61867 11.7987 5.104 12.06C5.608 12.3027 6.31733 12.6013 7.232 12.956C8.128 13.3107 8.90267 13.684 9.556 14.076C10.2093 14.4493 10.7133 14.916 11.068 15.476C11.4227 16.036 11.6 16.7453 11.6 17.604ZM21.7146 19.452C22.1439 19.452 22.5639 19.4147 22.9746 19.34C23.4039 19.2467 23.7959 19.144 24.1506 19.032V21.664C23.7772 21.832 23.2919 21.972 22.6946 22.084C22.0972 22.2147 21.4719 22.28 20.8186 22.28C19.9599 22.28 19.1759 22.14 18.4666 21.86C17.7572 21.5613 17.1972 21.0573 16.7866 20.348C16.3759 19.6387 16.1706 18.6493 16.1706 17.38V9.484H14.1266V7.944L16.3666 6.712L17.4866 3.492H19.6986V6.824H24.0106V9.484H19.6986V17.352C19.6986 18.0613 19.8852 18.5933 20.2586 18.948C20.6319 19.284 21.1172 19.452 21.7146 19.452ZM33.5376 6.544C35.4976 6.544 36.9816 6.97333 37.9896 7.832C39.0162 8.69067 39.5296 10.016 39.5296 11.808V22H37.0376L36.3376 19.9H36.2256C35.5722 20.7213 34.8816 21.328 34.1536 21.72C33.4256 22.0933 32.4362 22.28 31.1856 22.28C29.8229 22.28 28.6936 21.8973 27.7976 21.132C26.9016 20.3667 26.4536 19.1813 26.4536 17.576C26.4536 16.008 27.0229 14.832 28.1616 14.048C29.3189 13.264 31.0642 12.8253 33.3976 12.732L36.0296 12.648V11.892C36.0296 10.94 35.7962 10.2587 35.3296 9.848C34.8629 9.41867 34.2096 9.204 33.3696 9.204C32.6042 9.204 31.8669 9.316 31.1576 9.54C30.4669 9.764 29.7762 10.0253 29.0856 10.324L27.9656 7.86C28.7122 7.468 29.5616 7.15067 30.5136 6.908C31.4842 6.66533 32.4922 6.544 33.5376 6.544ZM34.1816 14.888C32.6322 14.944 31.5589 15.2147 30.9616 15.7C30.3642 16.1667 30.0656 16.8013 30.0656 17.604C30.0656 18.332 30.2709 18.8547 30.6816 19.172C31.1109 19.4707 31.6709 19.62 32.3616 19.62C33.3882 19.62 34.2562 19.3307 34.9656 18.752C35.6749 18.1547 36.0296 17.2773 36.0296 16.12V14.832L34.1816 14.888ZM50.0825 22.28C47.8985 22.28 46.1812 21.6547 44.9305 20.404C43.6798 19.1533 43.0545 17.184 43.0545 14.496C43.0545 12.6293 43.3625 11.1173 43.9785 9.96C44.6132 8.784 45.4812 7.92533 46.5825 7.384C47.6838 6.824 48.9438 6.544 50.3625 6.544C51.3145 6.544 52.1638 6.63733 52.9105 6.824C53.6572 7.01067 54.2918 7.23467 54.8145 7.496L53.7785 10.268C53.1998 10.044 52.6212 9.85733 52.0425 9.708C51.4638 9.54 50.9038 9.456 50.3625 9.456C47.8985 9.456 46.6665 11.1267 46.6665 14.468C46.6665 16.092 46.9745 17.3147 47.5905 18.136C48.2252 18.9573 49.1305 19.368 50.3065 19.368C51.1465 19.368 51.8932 19.2653 52.5465 19.06C53.1998 18.8547 53.8252 18.5747 54.4225 18.22V21.272C53.8438 21.608 53.2185 21.86 52.5465 22.028C51.8932 22.196 51.0718 22.28 50.0825 22.28ZM55.7098 6.824H59.5458L62.5698 15.392C62.7752 15.9333 62.9432 16.4653 63.0738 16.988C63.2045 17.5107 63.2978 18.0427 63.3538 18.584H63.4658C63.5405 18.1173 63.6525 17.604 63.8018 17.044C63.9512 16.484 64.1192 15.9333 64.3058 15.392L67.2178 6.824H71.0258L64.5578 24.016C63.9792 25.528 63.1858 26.6853 62.1778 27.488C61.1885 28.3093 59.9658 28.72 58.5098 28.72C58.0432 28.72 57.6418 28.692 57.3058 28.636C56.9698 28.5987 56.6712 28.552 56.4098 28.496V25.696C56.6152 25.7333 56.8578 25.7707 57.1378 25.808C57.4365 25.8453 57.7445 25.864 58.0618 25.864C58.9392 25.864 59.6298 25.6027 60.1338 25.08C60.6565 24.576 61.0578 23.9413 61.3378 23.176L61.7858 21.944L55.7098 6.824Z" fill="#7CAFC4"/>
<path d="M84.0638 10.828C84.0638 11.3133 84.0451 11.8267 84.0078 12.368C83.9705 12.9093 83.9331 13.4227 83.8958 13.908H83.9798C84.2038 13.572 84.4838 13.1893 84.8198 12.76C85.1558 12.3307 85.4731 11.948 85.7718 11.612L90.2518 6.824H94.2558L88.1798 13.376L94.6478 22H90.5318L85.8278 15.504L84.0638 16.96V22H80.5638V0.719999H84.0638V10.828ZM107.777 15.476C107.683 15.1213 107.571 14.6827 107.441 14.16C107.31 13.6187 107.17 13.0587 107.021 12.48C106.89 11.9013 106.769 11.3693 106.657 10.884C106.545 10.3987 106.461 10.0253 106.405 9.764H106.293C106.237 10.0253 106.153 10.3987 106.041 10.884C105.929 11.3693 105.807 11.9107 105.677 12.508C105.546 13.0867 105.406 13.6467 105.257 14.188C105.126 14.7107 105.014 15.1493 104.921 15.504L103.157 22H99.2927L95.0367 6.796H98.5927L100.469 14.048C100.599 14.552 100.721 15.112 100.833 15.728C100.963 16.3253 101.066 16.9133 101.141 17.492C101.234 18.052 101.309 18.5093 101.365 18.864H101.477C101.514 18.528 101.579 18.0707 101.673 17.492C101.785 16.9133 101.897 16.3533 102.009 15.812C102.121 15.252 102.214 14.832 102.289 14.552L104.473 6.796H108.337L110.437 14.552C110.511 14.888 110.605 15.3267 110.717 15.868C110.847 16.4093 110.959 16.96 111.053 17.52C111.146 18.0613 111.202 18.5 111.221 18.836H111.333C111.37 18.5373 111.435 18.108 111.529 17.548C111.622 16.988 111.734 16.3907 111.865 15.756C111.995 15.1213 112.135 14.552 112.285 14.048L114.189 6.796H117.689L113.377 22H109.457L107.777 15.476ZM133.819 14.384C133.819 16.904 133.166 18.8547 131.859 20.236C130.552 21.5987 128.779 22.28 126.539 22.28C125.158 22.28 123.926 21.972 122.843 21.356C121.76 20.74 120.911 19.844 120.295 18.668C119.679 17.492 119.371 16.064 119.371 14.384C119.371 11.864 120.015 9.932 121.303 8.588C122.61 7.22533 124.383 6.544 126.623 6.544C128.023 6.544 129.264 6.852 130.347 7.468C131.43 8.06533 132.279 8.952 132.895 10.128C133.511 11.2853 133.819 12.704 133.819 14.384ZM122.983 14.384C122.983 15.9893 123.263 17.2307 123.823 18.108C124.402 18.9853 125.326 19.424 126.595 19.424C127.864 19.424 128.779 18.9853 129.339 18.108C129.918 17.2307 130.207 15.9893 130.207 14.384C130.207 12.7787 129.918 11.5467 129.339 10.688C128.779 9.82933 127.855 9.4 126.567 9.4C125.316 9.4 124.402 9.82933 123.823 10.688C123.263 11.5467 122.983 12.7787 122.983 14.384ZM140.546 10.828C140.546 11.3133 140.527 11.8267 140.49 12.368C140.453 12.9093 140.415 13.4227 140.378 13.908H140.462C140.686 13.572 140.966 13.1893 141.302 12.76C141.638 12.3307 141.955 11.948 142.254 11.612L146.734 6.824H150.738L144.662 13.376L151.13 22H147.014L142.31 15.504L140.546 16.96V22H137.046V0.719999H140.546V10.828Z" fill="black"/>
</svg>
