<svg width="1512" height="573" viewBox="0 0 1512 573" fill="none" xmlns="http://www.w3.org/2000/svg">
<path d="M7.6294e-06 144.663C7.6294e-06 144.663 145.5 31.0799 428.5 49.1627C711.5 67.2456 1201.41 234.254 1512 0V254.29C1512 254.29 1443 439.27 1142 481.456C841 523.641 608.5 462.243 350.5 481.456C92.5 500.669 3.05176e-05 573 3.05176e-05 573C3.05176e-05 573 0 433.423 7.6294e-06 300.062C3.05176e-05 172.352 7.6294e-06 144.663 7.6294e-06 144.663Z" fill="url(#paint0_linear_202_4491)"/>
<defs>
<linearGradient id="paint0_linear_202_4491" x1="-7.40929e-06" y1="258.07" x2="1512" y2="258.07" gradientUnits="userSpaceOnUse">
<stop stop-color="#F7C0EC"/>
<stop offset="1" stop-color="#A7BDEA"/>
</linearGradient>
</defs>
</svg>
