<svg width="1512" height="547" viewBox="0 0 1512 547" fill="none" xmlns="http://www.w3.org/2000/svg">
<path d="M7.6294e-06 138.099C7.6294e-06 138.099 145.5 29.6696 428.5 46.932C711.5 64.1943 1201.41 223.624 1512 0V242.751C1512 242.751 1443 419.338 1142 459.609C841 499.881 608.5 441.268 350.5 459.609C92.5 477.951 3.05176e-05 547 3.05176e-05 547C3.05176e-05 547 0 413.756 7.6294e-06 286.447C3.05176e-05 164.532 7.6294e-06 138.099 7.6294e-06 138.099Z" fill="url(#paint0_linear_202_4492)"/>
<defs>
<linearGradient id="paint0_linear_202_4492" x1="1.49996" y1="263.79" x2="1512.39" y2="203.992" gradientUnits="userSpaceOnUse">
<stop stop-color="#FCBC98"/>
<stop offset="1" stop-color="#F1E1C2"/>
</linearGradient>
</defs>
</svg>
