<svg width="1512" height="526" viewBox="0 0 1512 526" fill="none" xmlns="http://www.w3.org/2000/svg">
<path d="M7.6294e-06 132.797C7.6294e-06 132.797 145.5 28.5306 428.5 45.1302C711.5 61.7298 1201.41 215.039 1512 0V233.432C1512 233.432 1443 403.239 1142 441.964C841 480.69 608.5 424.327 350.5 441.964C92.5 459.602 3.05176e-05 526 3.05176e-05 526C3.05176e-05 526 0 397.872 7.6294e-06 275.45C3.05176e-05 158.215 7.6294e-06 132.797 7.6294e-06 132.797Z" fill="url(#paint0_linear_202_4494)"/>
<defs>
<linearGradient id="paint0_linear_202_4494" x1="-7.40929e-06" y1="236.902" x2="1512" y2="236.902" gradientUnits="userSpaceOnUse">
<stop stop-color="#F5E6AD"/>
<stop offset="1" stop-color="#FF82BD"/>
<stop offset="1" stop-color="#A7BDEA"/>
</linearGradient>
</defs>
</svg>
