<svg width="334" height="89" viewBox="0 0 334 89" fill="none" xmlns="http://www.w3.org/2000/svg">
<path d="M119.933 40.2329L108.997 40.2338" stroke="#3C3C3C"/>
<path d="M121.129 53.4751L98.9434 61.131" stroke="#3C3C3C"/>
<path d="M136.548 16.3196L129.938 2.37817" stroke="#3C3C3C"/>
<path d="M130.286 65.9019L120.979 78.911" stroke="#3C3C3C"/>
<path d="M124.518 25.7675L106.062 12.5146" stroke="#3C3C3C"/>
<path d="M173.26 57.4922L187.214 66.2543" stroke="#3C3C3C"/>
<path d="M177.55 45.0063L191.004 46.8206" stroke="#3C3C3C"/>
<path d="M149.564 14.7099L150.552 5.37305" stroke="#3C3C3C"/>
<path d="M146.709 71.2637V80.5769" stroke="#3C3C3C"/>
<path d="M164.51 17.3502L176.002 1" stroke="#3C3C3C"/>
<path d="M161.52 68.8584L170.145 87.9507" stroke="#3C3C3C"/>
<path d="M174.17 28.6417L190.118 19.0959" stroke="#3C3C3C"/>
<path d="M147.545 64.1142C158.734 64.1142 167.804 55.0437 167.804 43.8547C167.804 32.6657 158.734 23.5952 147.545 23.5952C136.356 23.5952 127.285 32.6657 127.285 43.8547C127.285 55.0437 136.356 64.1142 147.545 64.1142Z" fill="#FDE720" fill-opacity="0.3" stroke="#3C3C3C"/>
<path d="M51.7001 47.9931C51.7001 62.6282 38.6331 73.6045 27.1341 73.6045C12.7006 73.6045 1 64.7359 1 47.9931C1 31.2503 13.5444 12.9734 25.566 12.9734C41.2465 12.9734 51.7001 32.3126 51.7001 47.9931Z" fill="white" stroke="black"/>
<path d="M41.3359 28.3827C43.1335 31.986 43.9858 35.2632 43.9115 37.9426C43.8377 40.6035 42.8554 42.6488 40.995 43.9011C39.5229 44.631 37.6599 45.0674 35.3205 44.2557C32.9411 43.4301 30.0089 41.293 26.4852 36.7121C23.924 33.3825 22.9403 30.2342 23.1344 27.608C23.3277 24.9941 24.6901 22.8399 26.9488 21.4637C29.0746 20.1684 31.5866 20.2976 34.1389 21.5697C36.6911 22.8416 39.2369 25.2403 41.3359 28.3827Z" fill="#5FD658" stroke="#59A452"/>
<path d="M19.8447 47.0185C20.0413 48.3946 19.9122 50.2547 19.363 51.8287C18.8083 53.4187 17.8834 54.5708 16.5865 54.8198C15.7287 54.9844 14.5644 54.8781 13.3616 54.0028C12.1545 53.1243 10.8704 51.4424 9.84736 48.3874C9.60195 47.1371 9.55057 45.4219 10.0612 43.9784C10.3163 43.2573 10.7063 42.6185 11.2686 42.1316C11.8275 41.6476 12.5814 41.2922 13.6029 41.1722C16.102 40.8784 17.4793 41.5082 18.3206 42.5275C19.2027 43.5963 19.5832 45.1881 19.8447 47.0185Z" fill="#5FD658" stroke="#59A452"/>
<path d="M21.9772 71.0131L21.9772 71.0131C21.7154 70.3765 21.7231 69.4922 22.0384 68.4206C22.351 67.3578 22.951 66.1649 23.7935 64.9553C25.479 62.5353 28.0914 60.1107 31.1466 58.5831C35.1651 56.5741 38.5945 55.9549 41.1759 56.2542C43.7535 56.5532 45.4469 57.7555 46.1425 59.3749C46.9054 61.2347 46.1537 63.117 44.3518 65.0121C42.5575 66.8992 39.8293 68.673 36.9718 70.2327C34.1236 71.5258 30.7043 72.6978 27.8013 73.0269C26.3456 73.1919 25.059 73.1401 24.0507 72.8153C23.0589 72.4958 22.3499 71.9193 21.9772 71.0131Z" fill="#5FD658" stroke="#59A452"/>
<path d="M233.51 7.95025V79.0836C243.449 79.3642 247.011 78.4982 256.605 77.0323C276.905 77.4742 289.836 78.1693 309.724 77.9561C318.364 80.533 323.46 80.247 332.82 80.0074V7.95025C326.696 7.25955 321.39 8.36064 309.724 10.7216C289.148 9.04391 277.299 9.03717 256.605 10.2598C248.144 8.65627 243.325 7.85052 233.51 7.95025Z" fill="#F9BED0" stroke="black"/>
<path d="M269.538 53.0718L245.519 52.6099L248.291 66.9289H267.229L269.538 53.0718Z" fill="#F2B63A" stroke="black"/>
<path d="M269.077 52.6099L264.92 46.6051L269.539 41.9861L276.006 50.3004L269.077 52.6099Z" fill="#EDB733" stroke="black"/>
<path d="M250.138 46.3618L244.596 43.7751L239.053 50.0571L244.596 53.0132L250.138 46.3618Z" fill="#F3B442" stroke="black"/>
<path d="M250.601 46.1428L248.753 52.6095H266.767L263.996 46.6047C258.574 48.0589 255.661 47.8309 250.601 46.1428Z" fill="#FEFEFE" stroke="black"/>
<path d="M267.191 40.5997C267.191 42.4411 266.166 44.152 264.421 45.4212C262.676 46.69 260.241 47.4902 257.529 47.4902C254.817 47.4902 252.382 46.69 250.638 45.4212C248.892 44.152 247.867 42.4411 247.867 40.5997C247.867 38.7583 248.892 37.0474 250.638 35.7782C252.382 34.5094 254.817 33.7092 257.529 33.7092C260.241 33.7092 262.676 34.5094 264.421 35.7782C266.166 37.0474 267.191 38.7583 267.191 40.5997Z" fill="#FEFEFE" stroke="black"/>
<path d="M255.219 31.824C249.651 32.3358 248.983 33.5915 246.905 37.3668L250.138 36.9049H255.219L256.143 35.5192H258.452L258.914 36.9049L269.076 37.3668C268.063 33.6484 267.085 32.2763 260.762 31.824H255.219Z" fill="#332C22" stroke="black"/>
<path d="M258.915 28.5905C258.915 28.5905 259.733 28.0711 260.301 28.1286C261.351 28.2352 261.686 29.0525 261.686 29.0525C261.686 29.0525 262.061 29.6894 261.686 30.4382C261.312 31.187 259.037 32.2132 256.605 32.2858C255.623 30.9844 255.219 29.9763 255.219 29.0525C255.219 28.1287 255.622 27.1313 256.143 26.743C256.74 26.299 257.265 26.1197 257.991 26.281C258.385 26.3685 258.647 26.4415 258.915 26.7429C259.394 27.2822 258.915 28.5905 258.915 28.5905Z" fill="#E14146" stroke="black"/>
<path fill-rule="evenodd" clip-rule="evenodd" d="M321.585 46.5992C321.357 47.2422 321.008 47.8116 320.565 48.2956C321.792 49.6316 322.521 51.1445 322.625 52.7763C323.033 59.1772 313.665 64.984 301.701 65.746C296.061 66.1053 290.85 65.2791 286.875 63.6346C285.465 66.1165 282.36 67.0658 279.852 65.7494C277.289 64.4048 275.691 62.486 277.057 59.8841C277.599 58.8502 278.528 57.864 279.611 57.1352C279.44 56.6169 279.335 56.0831 279.3 55.5359C278.893 49.1349 288.261 43.3282 300.225 42.5662C303.464 42.3598 306.562 42.5446 309.366 43.0509C309.412 42.8144 309.476 42.5792 309.558 42.3466C310.585 39.4421 314.11 38.0395 317.431 39.2139C320.752 40.3882 322.612 43.6948 321.585 46.5992ZM319.162 46.2459C319.06 46.4949 318.869 46.3647 318.419 46.0591C317.98 45.7605 317.294 45.2945 316.205 44.8509C315.513 44.569 314.73 44.3332 313.993 44.1114C312.384 43.627 310.998 43.2098 311.276 42.5257C311.683 41.5285 314.643 40.4985 317.594 41.6606C320.562 42.8291 319.62 45.1282 319.194 46.1673L319.162 46.2459ZM279.679 59.6639C279.375 59.2827 279.245 59.1204 279.078 59.336C279.061 59.3579 279.043 59.3806 279.025 59.404C278.326 60.3033 276.78 62.293 279.052 64.0036C281.312 65.7049 284.256 65.3286 284.925 64.4651C285.383 63.8727 284.282 63.1957 283.004 62.4096C282.419 62.0498 281.797 61.6672 281.27 61.2593C280.441 60.6175 279.977 60.0363 279.679 59.6639Z" fill="#372D24"/>
<ellipse cx="300.999" cy="54.1287" rx="18.4527" ry="8.35894" transform="rotate(-5.08233 300.999 54.1287)" fill="#F0B059"/>
<path d="M304.875 66.8075C299.639 69.9237 295.881 70.5196 286.927 68.4252L281.396 68.7811C281.984 67.0743 283.318 66.2867 287.181 65.1689C284.786 62.9704 284.77 61.6593 286.795 59.1765L287.925 62.3438L290.69 62.1659L290.572 60.3221L293.887 61.4973L294.75 60.5161L290.423 58.0173C292.428 57.5067 293.546 57.3546 295.494 57.6911C297.225 58.8674 298.157 59.5235 299.389 60.6805C300.205 59.2046 300.997 58.4135 303.791 57.1572L304.222 56.6666C305.671 57.0125 305.75 57.3631 306.155 57.9308C304.282 58.619 303.754 58.9507 303.017 59.5213C303.361 60.4105 303.596 60.7994 304.46 60.3542L306.244 59.3137L306.264 59.2867C306.917 58.4221 307.289 57.9291 306.988 56.4886L305.516 55.1948C307.233 55.0262 308.268 55.1082 310.155 55.3591L310.215 56.281C310.997 57.6581 311.139 58.3076 311.344 59.4484C310.273 60.798 309.849 61.5633 309.247 62.8233L310.63 62.7344C310.696 62.0089 310.939 61.5885 311.433 60.8312C312.157 61.7845 312.38 62.2784 312.503 63.0767C313.429 62.413 313.961 62.0874 314.66 60.6236C316.793 55.8308 319.109 54.4591 324.876 53.9491L321.544 59.7178C319.179 64.4026 316.083 65.4637 311.269 65.4704C310.341 66.4194 310.68 66.6263 309.544 67.4328C307.878 67.5172 306.814 67.5152 304.875 66.8075Z" fill="#EF4079"/>
<path d="M306.244 59.3137L304.46 60.3542C303.596 60.7994 303.361 60.4105 303.017 59.5213C303.754 58.9507 304.282 58.619 306.155 57.9308C305.75 57.3631 305.671 57.0125 304.222 56.6666L303.791 57.1572C300.997 58.4135 300.205 59.2046 299.389 60.6805C298.157 59.5235 297.225 58.8674 295.494 57.6911C293.546 57.3546 292.428 57.5067 290.423 58.0173L294.75 60.5161L293.887 61.4973L290.572 60.3221L290.69 62.1659L287.925 62.3438L286.795 59.1765C284.77 61.6593 284.786 62.9704 287.181 65.1689C283.318 66.2867 281.984 67.0743 281.396 68.7811L286.927 68.4252C295.881 70.5196 299.639 69.9237 304.875 66.8075C306.814 67.5152 307.878 67.5172 309.544 67.4328C310.68 66.6263 310.341 66.4194 311.269 65.4704C316.083 65.4637 319.179 64.4026 321.544 59.7178L324.876 53.9491C319.109 54.4591 316.793 55.8308 314.66 60.6236C313.961 62.0874 313.429 62.413 312.503 63.0767C312.38 62.2784 312.157 61.7845 311.433 60.8312C310.939 61.5885 310.696 62.0089 310.63 62.7344L309.247 62.8233C309.849 61.5633 310.273 60.798 311.344 59.4484C311.139 58.3076 310.997 57.6581 310.215 56.281L310.155 55.3591C308.268 55.1082 307.233 55.0262 305.516 55.1948L306.988 56.4886C307.289 57.9291 306.917 58.4221 306.264 59.2867M306.244 59.3137L306.264 59.2867M306.244 59.3137C306.251 59.3046 306.258 59.2956 306.264 59.2867" stroke="black"/>
<path d="M320.846 56.0604C319.263 56.8705 318.413 57.8396 316.965 60.4759C315.683 62.3715 314.769 63.0282 313.024 63.9695C318.015 63.0451 319.978 61.5924 320.846 56.0604Z" fill="#EFB935" stroke="black"/>
<path d="M308.579 59.627C306.595 60.7266 305.91 61.3948 305.069 62.63C305.138 63.589 305.235 64.0292 305.649 64.4441C306.613 65.3599 307.128 65.5175 308.042 65.6787C309.024 65.4689 309.388 65.2222 309.827 64.6381C309.97 64.268 309.981 64.0645 309.768 63.7162C309.204 63.7894 308.915 63.9319 308.414 64.2662C307.881 63.7752 307.798 63.3501 307.835 62.452C308.746 61.3783 308.694 60.7493 308.579 59.627Z" fill="#EFB935" stroke="black"/>
<path d="M301.292 61.4838C300.617 61.6717 300.303 61.8607 299.969 62.4947C300.301 63.3106 300.397 63.7369 300.088 64.3385C298.758 64.3001 298.021 64.0009 296.742 62.7023C293.089 62.9901 291.064 63.1955 287.553 63.7564C288.295 64.5477 288.797 64.9412 289.976 65.4519C290.155 66.3246 289.835 66.6337 288.682 66.9237L291.046 67.6973C292.009 68.0973 292.524 68.2667 293.411 68.471C296.166 68.594 297.668 68.4266 300.325 68.0261C301.78 67.3291 302.415 66.6202 303.373 65.0527C303.206 64.1678 303.088 63.6787 301.292 61.4838Z" fill="#EFB935" stroke="black"/>
<path opacity="0.6" d="M327.494 26.5079C327.998 33.0044 321.01 31.993 306.004 33.1571C287.872 36.2255 280.085 47.51 273.308 29.7118C271.75 21.3384 271.814 19.4919 287.605 17.2667C307.025 17.0162 326.883 18.6294 327.494 26.5079Z" fill="#EEF8EF"/>
<path d="M322.979 24.9596L324.65 25.5819M324.729 23.3272L324.008 27.817" stroke="#E13F48" stroke-width="1.25"/>
<path d="M320.646 27.136L320.588 28.827L325.078 29.5471" stroke="#E13F48" stroke-width="1.25"/>
<path d="M302.551 28.2014L304.813 28.0541M308.207 27.8333L307.641 27.8701M304.813 28.0541L304.144 31.0784M304.813 28.0541L307.641 27.8701M307.641 27.8701L307.546 30.6321" stroke="#E13F48" stroke-width="1.25"/>
<path d="M296.35 27.9866L298.604 28.0648L297.904 31.9909" stroke="#E13F48" stroke-width="1.25"/>
<path d="M290.674 28.9179L294.075 28.4716L294.017 30.1626L291.179 30.6285L292.228 32.9223L295.649 31.9123" stroke="#E13F48" stroke-width="1.25"/>
<path d="M296.662 18.9675L296.853 23.4889M296.972 26.3148L296.853 23.4889M296.853 23.4889L299.907 23.0306" stroke="#E13F48" stroke-width="1.25"/>
<path d="M293.747 21.6885L288.642 22.4349M287.507 22.6007L288.642 22.4349M288.642 22.4349L290.189 26.6442L294.174 25.6538" stroke="#E13F48" stroke-width="1.25"/>
<path d="M274.514 21.585L276.645 25.2063M283.63 19.0795L284.076 22.4811M276.645 25.2063L278.244 27.9222L284.523 25.8827L284.076 22.4811M276.645 25.2063L284.076 22.4811" stroke="#E13F48" stroke-width="1.25"/>
<path d="M288.429 27.1473L275.289 31.7705M282.714 29.2064L283.744 32.0639M280.886 33.0935L286.601 31.0343L286.523 33.289L282.499 35.4068L284.132 37.1565L289.283 35.0778" stroke="#E13F48" stroke-width="1.25"/>
<path d="M302.28 19.7268L302.775 21.7192M307.936 19.3587L307.878 21.0497M302.775 21.7192L303.271 23.7116L305.525 23.7898M302.775 21.7192L307.878 21.0497M307.878 21.0497L307.78 23.8681L305.525 23.7898M305.525 23.7898L305.447 26.0445M300.918 26.4517L309.412 25.6178" stroke="#E13F48" stroke-width="1.25"/>
<path d="M311.084 26.2402L317.285 26.4554" stroke="#E13F48" stroke-width="1.25"/>
<path d="M316.193 23.5956C316.185 23.8218 316.056 24.0701 315.759 24.2774C315.461 24.4847 315.027 24.6228 314.526 24.6054C314.026 24.588 313.602 24.4202 313.32 24.1927C313.037 23.9654 312.925 23.7087 312.933 23.4825C312.941 23.2562 313.071 23.0079 313.368 22.8007C313.665 22.5933 314.1 22.4553 314.6 22.4726C315.101 22.49 315.525 22.6578 315.807 22.8853C316.089 23.1126 316.201 23.3693 316.193 23.5956Z" stroke="#E13F48" stroke-width="1.25"/>
<mask id="path-46-inside-1_900_2833" fill="white">
<rect x="312.172" y="27.4062" width="4.51208" height="2.82005" rx="1" transform="rotate(1.98707 312.172 27.4062)"/>
</mask>
<rect x="312.172" y="27.4062" width="4.51208" height="2.82005" rx="1" transform="rotate(1.98707 312.172 27.4062)" stroke="#E13F48" stroke-width="2.5" mask="url(#path-46-inside-1_900_2833)"/>
<mask id="path-47-inside-2_900_2833" fill="white">
<rect x="318.528" y="23.1123" width="5.07609" height="3.38406" rx="1" transform="rotate(1.98707 318.528 23.1123)"/>
</mask>
<rect x="318.528" y="23.1123" width="5.07609" height="3.38406" rx="1" transform="rotate(1.98707 318.528 23.1123)" stroke="#E13F48" stroke-width="2.5" mask="url(#path-47-inside-2_900_2833)"/>
</svg>
