<svg width="158" height="87" viewBox="0 0 158 87" fill="none" xmlns="http://www.w3.org/2000/svg">
<path d="M40.248 46.4278L28.3042 39.2363" stroke="#3C3C3C"/>
<path d="M37.3794 56.9778L1 48.3208" stroke="#3C3C3C"/>
<path d="M64.5711 27.493L53.9697 7.16602" stroke="#3C3C3C"/>
<path d="M49.2764 35.0172L21.6733 7.16602" stroke="#3C3C3C"/>
<path d="M124.135 58.3989L157.391 44.6751" stroke="#3C3C3C"/>
<path d="M120.018 47.7983L135.319 39.6596" stroke="#3C3C3C"/>
<path d="M81.6292 25.1503L81.6292 11.571" stroke="#3C3C3C"/>
<path d="M99.2443 28.8372L113.077 1.00011" stroke="#3C3C3C"/>
<path d="M109.673 60.5555C109.673 60.5555 103.141 34.9859 79.1656 35.8194C55.1905 36.653 49.932 58.6638 49.932 58.6638" stroke="#3C3C3C"/>
<path d="M109.673 60.5555C109.673 60.5555 103.141 34.9859 79.1656 35.8194C55.1905 36.653 49.932 58.6638 49.932 58.6638L109.673 60.5555Z" fill="#FDE720" fill-opacity="0.3"/>
<path d="M112.433 37.1173L133.342 17.3879" stroke="#3C3C3C"/>
<path d="M92.9448 67.7262C92.9448 67.7262 78.4647 66.8422 64.9407 66.8131C51.0944 66.7832 38.2204 67.6178 40.3122 68.4718C44.4472 70.1599 52.9912 72.1534 52.7503 72.6971C52.5093 73.2407 46.9356 72.625 38.5131 73.1143C30.0907 73.6036 28.1146 74.5382 26.5383 73.5327C24.962 72.5272 35.6946 71.3771 43.1247 70.9141C57.599 70.0122 76.4468 70.431 85.1226 70.2646C98.252 70.0126 118.51 71.9356 125.078 71.8586C131.647 71.7815 132.974 70.9055 132.493 69.9594C132.011 69.0133 61.6285 72.9527 66.2353 74.827C70.8422 76.7014 120.071 81.1783 124.855 80.4552C128.904 79.8433 92.9021 78.4454 72.4733 79.484C68.6347 79.6791 47.5417 80.279 47.4515 81.5985C47.3839 82.588 64.9683 82.4978 67.5506 82.582" stroke="#3C3C3C"/>
</svg>
