<svg width="204" height="141" viewBox="0 0 204 141" fill="none" xmlns="http://www.w3.org/2000/svg">
<path d="M50.2106 63.5227L35.2661 53.625" stroke="#3C3C3C"/>
<path d="M46.6225 78.0427L1.10352 66.1279" stroke="#3C3C3C"/>
<path d="M80.6461 37.4627L67.3813 9.48633" stroke="#3C3C3C"/>
<path d="M61.507 47.8184L26.9692 9.48633" stroke="#3C3C3C"/>
<path d="M155.174 79.9993L196.784 61.111" stroke="#3C3C3C"/>
<path d="M150.023 65.4091L169.167 54.2076" stroke="#3C3C3C"/>
<path d="M101.988 34.2383L101.988 15.5489" stroke="#3C3C3C"/>
<path d="M124.03 39.3126L141.337 0.999892" stroke="#3C3C3C"/>
<path d="M137.08 82.9671C137.08 82.9671 128.907 47.7752 98.9083 48.9225C68.91 50.0698 62.3303 80.3636 62.3303 80.3636" stroke="#3C3C3C"/>
<path d="M137.08 82.9671C137.08 82.9671 128.907 47.7752 98.9083 48.9225C68.91 50.0698 62.3303 80.3636 62.3303 80.3636L137.08 82.9671Z" fill="#FDE720" fill-opacity="0.3"/>
<path d="M140.53 50.709L166.693 23.555" stroke="#3C3C3C"/>
<path d="M116.146 92.8365C116.146 92.8365 98.0277 91.6199 81.1061 91.5798C63.7811 91.5387 47.6728 92.6874 50.2902 93.8627C55.464 96.1861 66.1545 98.9298 65.853 99.678C65.5515 100.426 58.5775 99.5789 48.0391 100.252C37.5007 100.926 35.0282 102.212 33.0558 100.828C31.0835 99.4442 44.5124 97.8613 53.8092 97.2241C71.9199 95.9828 95.5028 96.5592 106.358 96.3301C122.786 95.9834 148.134 98.63 156.352 98.524C164.571 98.4179 166.231 97.2122 165.629 95.9101C165.027 94.6079 76.9617 100.03 82.7259 102.61C88.4902 105.189 150.087 111.351 156.073 110.356C161.138 109.514 116.092 107.59 90.5311 109.019C85.7281 109.288 59.3359 110.113 59.2231 111.929C59.1385 113.291 81.1406 113.167 84.3716 113.283C91.5349 113.54 99.3692 113.945 105.287 113.581C129.154 112.115 47.5242 126.4 45.8493 124.017C44.1744 121.634 140.059 118.268 135.908 119.58C131.31 121.032 86.67 122.404 88.8271 124.361C91.0982 126.422 108.199 125.46 108.213 125.057C108.221 124.842 73.594 131.903 75.9738 133.201C77.1792 133.859 116.665 126.168 141.389 124.629C166.112 123.089 196.732 123.687 194.383 124.103C188.686 125.112 157.301 128.435 155.239 129.574C153.154 130.725 175.769 128.334 184.949 127.809C193.415 127.324 201.898 128.821 201.898 128.821" stroke="#3C3C3C"/>
</svg>
